<?xml version="1.0" encoding="utf-8"?>
<!-- Generator: Adobe Illustrator 25.2.0, SVG Export Plug-In . SVG Version: 6.00 Build 0)  -->
<svg version="1.1" id="Layer_1" xmlns="http://www.w3.org/2000/svg" xmlns:xlink="http://www.w3.org/1999/xlink" x="0px" y="0px"
	 viewBox="0 0 250 250" style="enable-background:new 0 0 250 250;" xml:space="preserve">
<style type="text/css">
	.st0{fill:#DF343A;}
	.st1{fill:#FFFFFF;}
</style>
<rect class="st0" width="250" height="250"/>
<g>
	<g>
		<g>
			<path class="st1" d="M125,125.21c-41.98,0-76.14,34.16-76.14,76.14c0,1.83,1.48,3.31,3.31,3.31c1.83,0,3.31-1.48,3.31-3.31
				c0-38.33,31.18-69.52,69.52-69.52s69.52,31.18,69.52,69.52c0,1.83,1.48,3.31,3.31,3.31c1.83,0,3.31-1.48,3.31-3.31
				C201.14,159.36,166.98,125.21,125,125.21z"/>
		</g>
	</g>
	<g>
		<g>
			<path class="st1" d="M125,45.35c-20.07,0-36.41,16.33-36.41,36.41s16.34,36.41,36.41,36.41s36.41-16.33,36.41-36.41
				S145.07,45.35,125,45.35z M125,111.55c-16.43,0-29.79-13.37-29.79-29.79S108.57,51.97,125,51.97s29.79,13.37,29.79,29.79
				S141.43,111.55,125,111.55z"/>
		</g>
	</g>
</g>
</svg>
